# xmcd
# 
# Track frame offsets:
#     150
#     23482
#     45380
#     72182
#     94377
#     115900
#     136772
#     157080
#     179725
#     206675
# 
# Disc length: 2969
# 
# Revision: 5
# Processed by: cddbd v1.5.2PL0 Copyright (c) Steve Scherf et al.
# Submitted via: BonkEnc v1.0.6
# 
DISCID=880b970a
DTITLE=Device - 22B3
DYEAR=1986
DGENRE=Pop-Rock
TTITLE0=Hanging On Heart Attack
TTITLE1=Who Says
TTITLE2=Pieces On The Ground
TTITLE3=Tough And Tender
TTITLE4=When Love Is Good
TTITLE5=Didn't I Read You Right
TTITLE6=Fall Apart , Golden Heart
TTITLE7=I've Got No Room For Your Love
TTITLE8=Who's On The Line
TTITLE9=Sand , Stone , Cobwebs And Dust
EXTD=YEAR: 1986
EXTT0=
EXTT1=
EXTT2=
EXTT3=
EXTT4=
EXTT5=
EXTT6=
EXTT7=
EXTT8=
EXTT9=
PLAYORDER=
